<svg width="46" height="9" viewBox="0 0 46 9" fill="none" xmlns="http://www.w3.org/2000/svg">
<path d="M4.88672 5.43359C4.88672 4.50391 4.83594 3.82031 4.73438 3.38281C4.79688 3.26562 4.70312 3.20703 4.45312 3.20703C4.1875 3.20703 3.84375 3.27344 3.42188 3.40625C3 3.53906 2.65625 3.67188 2.39062 3.80469C1.75781 4.10938 1.40625 4.40625 1.33594 4.69531V7.88281H0.550781C0.449219 7.61719 0.398438 6.87109 0.398438 5.64453C0.398438 4.55078 0.417969 3.74609 0.457031 3.23047C0.503906 2.71484 0.539062 2.42188 0.5625 2.35156C0.765625 2.21875 0.929688 2.15234 1.05469 2.15234C1.25 2.15234 1.34766 2.38281 1.34766 2.84375C1.34766 3.02344 1.33594 3.19922 1.3125 3.37109C1.29688 3.53516 1.28906 3.64844 1.28906 3.71094C2.55469 2.78125 3.53516 2.31641 4.23047 2.31641C5.01953 2.31641 5.46875 2.95312 5.57812 4.22656C5.625 4.67188 5.64844 5.28906 5.64844 6.07812L5.63672 7.00391C5.63672 7.34766 5.64453 7.67969 5.66016 8C5.58203 8.04688 5.51953 8.07031 5.47266 8.07031C5.44922 8.0625 5.39844 8.05078 5.32031 8.03516C5.24219 8.01953 5.14062 8.00781 5.01562 8C4.9375 7.6875 4.89453 7.37109 4.88672 7.05078C4.87891 6.72266 4.875 6.42188 4.875 6.14844L4.88672 5.43359ZM6.60938 5.77344C6.60938 4.85156 7.00781 4.10938 7.80469 3.54688C8.4375 3.10156 9.19922 2.83203 10.0898 2.73828C10.1367 2.73828 10.2461 2.73828 10.418 2.73828C10.5898 2.73828 10.8203 2.78906 11.1094 2.89062C11.75 3.10938 12.1875 3.49609 12.4219 4.05078C12.5156 4.26953 12.5625 4.45703 12.5625 4.61328C12.5625 4.76172 12.5586 4.86719 12.5508 4.92969C12.5508 5.90625 12.1797 6.67578 11.4375 7.23828C10.75 7.75391 9.89062 8.01172 8.85938 8.01172C8.11719 8.01172 7.55469 7.83984 7.17188 7.49609C6.79688 7.15234 6.60938 6.57812 6.60938 5.77344ZM7.41797 6.05469C7.41797 6.53906 7.54688 6.86719 7.80469 7.03906C8 7.16406 8.32812 7.22656 8.78906 7.22656C9.25 7.22656 9.65625 7.19141 10.0078 7.12109C10.3594 7.05078 10.6719 6.92969 10.9453 6.75781C11.5312 6.38281 11.8242 5.80078 11.8242 5.01172C11.8242 4.54297 11.6992 4.16016 11.4492 3.86328C11.1758 3.54297 10.8164 3.38281 10.3711 3.38281C10.0664 3.4375 9.75781 3.49609 9.44531 3.55859C9.14062 3.62109 8.85156 3.74219 8.57812 3.92188C7.98438 4.30469 7.59766 5.01562 7.41797 6.05469ZM14.8359 6.875L14.8594 5C14.8594 4.70312 14.832 4.44922 14.7773 4.23828H12.9609L12.9375 3.42969H14.6953V0.40625C14.7188 0.335938 14.7656 0.265625 14.8359 0.195312C14.9453 0.0859375 15.0352 0.03125 15.1055 0.03125C15.1836 0.03125 15.25 0.0390625 15.3047 0.0546875C15.3594 0.0703125 15.418 0.125 15.4805 0.21875C15.6055 0.734375 15.668 1.51172 15.668 2.55078C15.668 2.80859 15.6797 3.0625 15.7031 3.3125C15.9531 3.28125 16.2031 3.26562 16.4531 3.26562C16.4531 3.26562 16.6562 3.26562 17.0625 3.26562C17.2109 3.26562 17.3477 3.25781 17.4727 3.24219L17.4375 4.08594L15.7266 4.03906L15.7852 8.08203C15.6445 8.14453 15.5234 8.17578 15.4219 8.17578C15.0312 8.17578 14.8359 7.74219 14.8359 6.875ZM22.5234 6.05469C21.9375 6.97656 21.1562 7.54688 20.1797 7.76562C19.9531 7.8125 19.7461 7.83594 19.5586 7.83594C19.3789 7.83594 19.2266 7.83594 19.1016 7.83594C18.9844 7.82812 18.8516 7.80859 18.7031 7.77734C18.5547 7.74609 18.418 7.69531 18.293 7.625C18.0039 7.46094 17.8594 7.23047 17.8594 6.93359C17.8281 6.79297 17.8125 6.63672 17.8125 6.46484C17.8125 6.28516 17.8516 6.05078 17.9297 5.76172C18.0078 5.47266 18.1484 5.16016 18.3516 4.82422C18.5625 4.48828 18.8164 4.17969 19.1133 3.89844C19.7305 3.30469 20.3984 2.92188 21.1172 2.75C21.3281 2.70312 21.5195 2.67969 21.6914 2.67969C21.8711 2.67969 22.0312 2.69141 22.1719 2.71484C22.625 2.71484 22.9297 3.02344 23.0859 3.64062C23.1875 4.03125 23.2461 4.57812 23.2617 5.28125C23.2852 5.97656 23.3047 6.51562 23.3203 6.89844C23.3438 7.27344 23.3945 7.61719 23.4727 7.92969H22.7812C22.75 7.71875 22.7266 7.53125 22.7109 7.36719C22.6953 7.20312 22.6797 7.05078 22.6641 6.91016C22.625 6.58203 22.5781 6.29688 22.5234 6.05469ZM22.4766 4.23828C22.4766 3.78516 22.2539 3.55859 21.8086 3.55859C21.7539 3.55078 21.6992 3.54688 21.6445 3.54688C21.0742 3.54688 20.4727 3.82031 19.8398 4.36719C19.543 4.61719 19.2891 4.89844 19.0781 5.21094C18.7656 5.65625 18.6094 6.05469 18.6094 6.40625C18.6094 6.86719 18.875 7.14062 19.4062 7.22656C20.1094 7.21094 20.7812 6.89062 21.4219 6.26562C21.6953 5.99219 21.9219 5.69531 22.1016 5.375C22.3516 4.94531 22.4766 4.56641 22.4766 4.23828ZM25.793 6.875L25.8164 5C25.8164 4.70312 25.7891 4.44922 25.7344 4.23828H23.918L23.8945 3.42969H25.6523V0.40625C25.6758 0.335938 25.7227 0.265625 25.793 0.195312C25.9023 0.0859375 25.9922 0.03125 26.0625 0.03125C26.1406 0.03125 26.207 0.0390625 26.2617 0.0546875C26.3164 0.0703125 26.375 0.125 26.4375 0.21875C26.5625 0.734375 26.625 1.51172 26.625 2.55078C26.625 2.80859 26.6367 3.0625 26.6602 3.3125C26.9102 3.28125 27.1602 3.26562 27.4102 3.26562C27.4102 3.26562 27.6133 3.26562 28.0195 3.26562C28.168 3.26562 28.3047 3.25781 28.4297 3.24219L28.3945 4.08594L26.6836 4.03906L26.7422 8.08203C26.6016 8.14453 26.4805 8.17578 26.3789 8.17578C25.9883 8.17578 25.793 7.74219 25.793 6.875ZM31.2656 7.17969C31.9531 7.17969 32.9883 6.86719 34.3711 6.24219C34.457 6.24219 34.5273 6.27344 34.582 6.33594C34.6367 6.39062 34.6641 6.45703 34.6641 6.53516C34.3516 7.06641 33.7539 7.48047 32.8711 7.77734C31.9883 8.07422 31.1641 8.125 30.3984 7.92969C29.5312 7.70312 29.0039 7.21484 28.8164 6.46484C28.8008 6.31641 28.793 6.11719 28.793 5.86719C28.793 5.61719 28.8555 5.28906 28.9805 4.88281C29.1133 4.46875 29.3359 4.07812 29.6484 3.71094C29.9609 3.34375 30.3281 3.05469 30.75 2.84375C31.1719 2.63281 31.6211 2.52734 32.0977 2.52734C32.5508 2.52734 33.0586 2.68359 33.6211 2.99609C33.8867 3.14453 34.0977 3.3125 34.2539 3.5C34.4102 3.6875 34.4883 3.87891 34.4883 4.07422C34.4883 4.12891 34.4844 4.18359 34.4766 4.23828C34.4609 4.71484 34.2305 5.01562 33.7852 5.14062C33.5898 5.19531 33.3633 5.22266 33.1055 5.22266L31.418 5.15234C30.8555 5.15234 30.4258 5.27344 30.1289 5.51562C29.957 5.64844 29.8359 5.84766 29.7656 6.11328C29.9609 6.82422 30.4609 7.17969 31.2656 7.17969ZM33.3516 3.55859C33.1797 3.43359 33 3.34375 32.8125 3.28906C32.625 3.23438 32.4688 3.20703 32.3438 3.20703C32.2188 3.20703 32.0156 3.25 31.7344 3.33594C31.4531 3.41406 31.2031 3.50391 30.9844 3.60547C30.4453 3.85547 30.1758 4.11719 30.1758 4.39062C30.8008 4.44531 31.2695 4.47266 31.582 4.47266C32.4492 4.47266 33.0352 4.39844 33.3398 4.25C33.5273 4.17188 33.6211 4.07422 33.6211 3.95703C33.6211 3.81641 33.5312 3.68359 33.3516 3.55859ZM35.5898 8.01172C35.4102 7.99609 35.3203 7.91797 35.3203 7.77734C35.3203 7.60547 35.418 7.44531 35.6133 7.29688C35.6914 7.24219 35.75 7.21484 35.7891 7.21484C35.8359 7.21484 35.8711 7.21875 35.8945 7.22656C36.0586 7.22656 36.168 7.26172 36.2227 7.33203C36.2852 7.39453 36.3164 7.48047 36.3164 7.58984C36.3164 7.69922 36.293 7.78125 36.2461 7.83594C36.1992 7.89062 36.1406 7.92969 36.0703 7.95312C35.9531 7.99219 35.793 8.01172 35.5898 8.01172ZM38.1094 2.49219C38.2109 3.95312 38.2969 5.64453 38.3672 7.56641C38.3203 7.80859 38.1328 7.92969 37.8047 7.92969C37.7188 7.92969 37.6289 7.91406 37.5352 7.88281C37.4492 7.84375 37.3945 7.79297 37.3711 7.73047V2.49219H38.1094ZM37.0195 0.898438C37.0195 0.625 37.1797 0.488281 37.5 0.488281C37.7109 0.488281 37.8828 0.535156 38.0156 0.628906C38.0391 0.714844 38.0508 0.800781 38.0508 0.886719C38.0508 0.964844 38.0195 1.04297 37.957 1.12109C37.8945 1.19922 37.8008 1.23828 37.6758 1.23828C37.5508 1.23828 37.4258 1.21094 37.3008 1.15625C37.1758 1.09375 37.082 1.00781 37.0195 0.898438ZM39.1641 5.77344C39.1641 4.85156 39.5625 4.10938 40.3594 3.54688C40.9922 3.10156 41.7539 2.83203 42.6445 2.73828C42.6914 2.73828 42.8008 2.73828 42.9727 2.73828C43.1445 2.73828 43.375 2.78906 43.6641 2.89062C44.3047 3.10938 44.7422 3.49609 44.9766 4.05078C45.0703 4.26953 45.1172 4.45703 45.1172 4.61328C45.1172 4.76172 45.1133 4.86719 45.1055 4.92969C45.1055 5.90625 44.7344 6.67578 43.9922 7.23828C43.3047 7.75391 42.4453 8.01172 41.4141 8.01172C40.6719 8.01172 40.1094 7.83984 39.7266 7.49609C39.3516 7.15234 39.1641 6.57812 39.1641 5.77344ZM39.9727 6.05469C39.9727 6.53906 40.1016 6.86719 40.3594 7.03906C40.5547 7.16406 40.8828 7.22656 41.3438 7.22656C41.8047 7.22656 42.2109 7.19141 42.5625 7.12109C42.9141 7.05078 43.2266 6.92969 43.5 6.75781C44.0859 6.38281 44.3789 5.80078 44.3789 5.01172C44.3789 4.54297 44.2539 4.16016 44.0039 3.86328C43.7305 3.54297 43.3711 3.38281 42.9258 3.38281C42.6211 3.4375 42.3125 3.49609 42 3.55859C41.6953 3.62109 41.4062 3.74219 41.1328 3.92188C40.5391 4.30469 40.1523 5.01562 39.9727 6.05469Z" fill="black"/>
</svg>
